inDegrees=yes
name=ik_S46_A11_T03
DataType=double
version=3
OpenSimVersion=4.3-2021-08-27-4bc7ad9
endheader
time	pelvis_tilt	pelvis_list	pelvis_rotation	pelvis_tx	pelvis_ty	pelvis_tz	hip_flexion_r	hip_adduction_r	hip_rotation_r	knee_angle_r	knee_angle_r_beta	ankle_angle_r	subtalar_angle_r	mtp_angle_r	hip_flexion_l	hip_adduction_l	hip_rotation_l	knee_angle_l	knee_angle_l_beta	ankle_angle_l	subtalar_angle_l	mtp_angle_l	lumbar_extension	lumbar_bending	lumbar_rotation	arm_flex_r	arm_add_r	arm_rot_r	elbow_flex_r	pro_sup_r	wrist_flex_r	wrist_dev_r	arm_flex_l	arm_add_l	arm_rot_l	elbow_flex_l	pro_sup_l	wrist_flex_l	wrist_dev_l
7.599999999999926	4.19600289579521	0.1382649900767358	49.71402935684718	0	0.9399999999999999	0	45.24625022172597	-10.03492738648973	-10.09209875252824	54.57354131386899	0.952487980400166	0	0	0	45.24625022172597	-10.03492738648973	-10.09209875252824	54.57354131386899	0.952487980400166	0	0	0	2.738290096945091	-2.614292245907619	14.26242572145143	91.06752769036656	-30.7522724938494	47.21347456886815	58.1731983127472	19.0810150905261	0	0	1.132974171007942	-7.479887224355135	-1.18354509703523	-1.248370876655771	108.3116306177028	0	0
7.619999999999925	4.20240703209196	0.1095056442342478	49.76807300118647	0	0.9399999999999999	0	45.24618475123592	-10.0348949584251	-10.09204389957635	54.57361727505972	0.9524893061730481	0	0	0	45.24618475123592	-10.0348949584251	-10.09204389957635	54.57361727505972	0.9524893061730481	0	0	0	2.72054645752775	-2.639304649621426	14.22939910139473	91.03498273807095	-30.57827710966902	47.22886861457331	58.34463514749704	18.35939225880142	0	0	1.114661298610358	-7.494523097608526	-1.283866478855543	-1.229546420337798	108.3905858281694	0	0
7.639999999999925	4.218420100366643	0.07950261061544266	49.82829621260048	0	0.9399999999999999	0	45.24613476896617	-10.03487021363678	-10.09200203289808	54.57367526913446	0.9524903183605989	0	0	0	45.24613476896617	-10.03487021363678	-10.09200203289808	54.57367526913446	0.9524903183605989	0	0	0	2.707973654816304	-2.670577981823307	14.23570389666994	90.96984489399922	-30.49070654013202	47.23606271942055	58.42111918905993	18.06883993893122	0	0	1.101419094929228	-7.523962880225191	-1.319236582734803	-1.203314719721689	108.4664863238409	0	0
7.659999999999925	4.235527390552275	0.07683901928519793	49.86878671768542	0	0.9399999999999999	0	45.24607788512221	-10.03484226627961	-10.09195462016012	54.57374170968599	0.9524914779669799	0	0	0	45.24607788512221	-10.03484226627961	-10.09195462016012	54.57374170968599	0.9524914779669799	0	0	0	2.716973341234945	-2.687114261053445	14.1946071016039	90.77330241454925	-30.37863893123129	47.26056325309847	58.75416017241968	17.58357318679213	0	0	1.086241303527143	-7.553882841881103	-1.34105331667112	-1.20186600060179	108.4817885007021	0	0
7.679999999999924	4.238836173715232	0.05099661834968763	49.9024699698078	0	0.9399999999999999	0	45.24600203453711	-10.03480496229491	-10.09189134938728	54.57383017484268	0.9524930219752376	0	0	0	45.24600203453711	-10.03480496229491	-10.09189134938728	54.57383017484268	0.9524930219752376	0	0	0	2.699461275032885	-2.708146111761118	14.15959949889556	90.73686896326602	-30.41469268290683	47.21195651541731	59.24501128993187	17.58378768403603	0	0	1.086227449917118	-7.564375877766639	-1.464771723952673	-1.163657755894339	108.6037316148244	0	0
7.699999999999924	4.262127001980379	0.03477772856140773	49.94470781587355	0	0.9399999999999999	0	45.24524976092954	-10.03453981576325	-10.09136659975092	54.57474901765139	0.9525090588075578	0	0	0	45.24524976092954	-10.03453981576325	-10.09136659975092	54.57474901765139	0.9525090588075578	0	0	0	2.702246862780233	-2.736978771223219	14.13725165395619	90.65598165443539	-30.44412564303884	47.12164604887711	59.39803942113175	17.79074441956909	0	0	1.051878908730164	-7.580472986973745	-1.538812615291433	-1.158031492559412	108.6677170973876	0	0
7.719999999999923	4.277295218149397	0.02314494850304134	49.95403969742667	0	0.9399999999999999	0	45.24517086707848	-10.03450111740456	-10.09130087188859	54.57484088396955	0.9525106621772813	0	0	0	45.24517086707848	-10.03450111740456	-10.09130087188859	54.57484088396955	0.9525106621772813	0	0	0	2.703151812873649	-2.757752517174648	14.10099420045767	90.57757439618456	-30.46898429397803	47.08842482925505	59.61123738393039	17.82485272422283	0	0	1.00894057277462	-7.520477765574801	-1.760073983039046	-1.137835618277414	108.837953706497	0	0
7.739999999999923	4.292003994891742	0.01223164725780187	49.95202455426173	0	0.9399999999999999	0	45.24465609025456	-10.03431699493855	-10.09093917245992	54.57546853758731	0.9525216167994732	0	0	0	45.24465609025456	-10.03431699493855	-10.09093917245992	54.57546853758731	0.9525216167994732	0	0	0	2.704413429475455	-2.776993595744225	14.07440450871793	90.48862717443821	-30.47852922363898	47.05267471055679	59.7139094672781	17.85117765242217	0	0	0.9815152272471899	-7.500524387922606	-1.827616222028078	-1.114820785035358	108.8428251022683	0	0
7.759999999999923	4.289737578247776	0.01472549495960255	49.9179874801826	0	0.9399999999999999	0	45.24458980448927	-10.03428466569551	-10.09088413470642	54.57554590621999	0.9525229671368514	0	0	0	45.24458980448927	-10.03428466569551	-10.09088413470642	54.57554590621999	0.9525229671368514	0	0	0	2.704920202947	-2.774022309611837	14.06675318906789	90.40791661752004	-30.51332467352823	47.08733642261823	59.9252783691339	17.84890771272588	0	0	0.938996650894959	-7.437926757850339	-1.879412227081087	-1.080756973050744	108.8594204146595	0	0
7.779999999999922	4.308243630773078	0.003498551641290822	49.90752666546339	0	0.9399999999999999	0	45.24380146694397	-10.03401028565712	-10.09033705865995	54.57650931324169	0.9525397817614168	0	0	0	45.24380146694397	-10.03401028565712	-10.09033705865995	54.57650931324169	0.9525397817614168	0	0	0	2.708466428065173	-2.796576534503705	14.03180871546397	90.36177581085289	-30.47054706683081	47.02531244779482	60.01579715001074	17.96950430240171	0	0	0.9137004287482761	-7.445145306121536	-1.876903089409255	-1.07278394007176	108.8346095877293	0	0
7.799999999999922	4.302905913569365	-0.02559846524263113	49.86478221968326	0	0.9399999999999999	0	45.24374084363566	-10.03398073843539	-10.09028672196407	54.57657983413393	0.9525410125831778	0	0	0	45.24374084363566	-10.03398073843539	-10.09028672196407	54.57657983413393	0.9525410125831778	0	0	0	2.682794535681118	-2.811486496804356	14.02731963070951	90.35237009568699	-30.55083964470751	47.03112872151773	60.27107863291853	17.95686344948242	0	0	0.909948200708882	-7.399208865382787	-1.849427596276025	-0.9790136458283558	108.8145701984193	0	0
7.819999999999921	4.312627129386508	-0.06477052248617834	49.82843718095105	0	0.9399999999999999	0	45.24369995514346	-10.03396096173997	-10.09025294056653	54.57662772446155	0.9525418484270747	0	0	0	45.24369995514346	-10.03396096173997	-10.09025294056653	54.57662772446155	0.9525418484270747	0	0	0	2.659147925309064	-2.844389699164868	14.02450460566068	90.37963017373497	-30.51150321510903	46.96678303364371	60.3560097155306	17.93384421653953	0	0	0.931297051433715	-7.383468918271757	-1.778446731584525	-0.9394001930918441	108.8019184354426	0	0
7.839999999999921	4.32244565745021	-0.07160464104327872	49.73963770626198	0	0.9399999999999999	0	45.24361636295679	-10.03392029129086	-10.09018359923098	54.57672502907251	0.9525435467129133	0	0	0	45.24361636295679	-10.03392029129086	-10.09018359923098	54.57672502907251	0.9525435467129133	0	0	0	2.66052107134504	-2.855319923485771	14.05711982862371	90.15620534092126	-30.89455423557197	47.24633538269072	60.92619689553017	17.35502534311939	0	0	0.8993684958928202	-7.368677180319309	-1.752643445267515	-0.8910525362636864	108.7928368860436	0	0
7.85999999999992	4.331073704135521	-0.08017642098933192	49.72541434866277	0	0.9399999999999999	0	45.24297244530631	-10.03369055086769	-10.08973178240218	54.57751281268754	0.9525572961307888	0	0	0	45.24297244530631	-10.03369055086769	-10.08973178240218	54.57751281268754	0.9525572961307888	0	0	0	2.659862551361546	-2.868794489580301	14.01716165740369	90.13399836591043	-30.84539270741509	47.20523523514704	60.99367040062415	17.20154618513908	0	0	0.9006494981109906	-7.403972144537602	-1.817914573603254	-0.9174953117392741	108.7780992887206	0	0
